<svg width="351" height="198" viewBox="0 0 351 198" fill="none" xmlns="http://www.w3.org/2000/svg">
<g filter="url(#filter0_d_9_1227)">
<path d="M83.9531 120.395H76.5508V116.508H83.9531C85.2422 116.508 86.2839 116.299 87.0781 115.883C87.8724 115.466 88.4518 114.893 88.8164 114.164C89.194 113.422 89.3828 112.576 89.3828 111.625C89.3828 110.727 89.194 109.887 88.8164 109.105C88.4518 108.311 87.8724 107.673 87.0781 107.191C86.2839 106.71 85.2422 106.469 83.9531 106.469H78.0547V131H73.1523V102.562H83.9531C86.1536 102.562 88.0221 102.953 89.5586 103.734C91.1081 104.503 92.2865 105.57 93.0938 106.938C93.901 108.292 94.3047 109.841 94.3047 111.586C94.3047 113.422 93.901 114.997 93.0938 116.312C92.2865 117.628 91.1081 118.637 89.5586 119.34C88.0221 120.043 86.1536 120.395 83.9531 120.395ZM121.875 116V117.562C121.875 119.711 121.595 121.638 121.035 123.344C120.475 125.049 119.674 126.501 118.633 127.699C117.604 128.897 116.367 129.815 114.922 130.453C113.477 131.078 111.875 131.391 110.117 131.391C108.372 131.391 106.777 131.078 105.332 130.453C103.9 129.815 102.656 128.897 101.602 127.699C100.547 126.501 99.7266 125.049 99.1406 123.344C98.5677 121.638 98.2812 119.711 98.2812 117.562V116C98.2812 113.852 98.5677 111.931 99.1406 110.238C99.7135 108.533 100.521 107.081 101.562 105.883C102.617 104.672 103.861 103.754 105.293 103.129C106.738 102.491 108.333 102.172 110.078 102.172C111.836 102.172 113.438 102.491 114.883 103.129C116.328 103.754 117.572 104.672 118.613 105.883C119.655 107.081 120.456 108.533 121.016 110.238C121.589 111.931 121.875 113.852 121.875 116ZM116.973 117.562V115.961C116.973 114.372 116.816 112.973 116.504 111.762C116.204 110.538 115.755 109.516 115.156 108.695C114.57 107.862 113.848 107.237 112.988 106.82C112.129 106.391 111.159 106.176 110.078 106.176C108.997 106.176 108.034 106.391 107.188 106.82C106.341 107.237 105.618 107.862 105.02 108.695C104.434 109.516 103.984 110.538 103.672 111.762C103.359 112.973 103.203 114.372 103.203 115.961V117.562C103.203 119.151 103.359 120.557 103.672 121.781C103.984 123.005 104.44 124.04 105.039 124.887C105.651 125.72 106.38 126.352 107.227 126.781C108.073 127.198 109.036 127.406 110.117 127.406C111.211 127.406 112.181 127.198 113.027 126.781C113.874 126.352 114.59 125.72 115.176 124.887C115.762 124.04 116.204 123.005 116.504 121.781C116.816 120.557 116.973 119.151 116.973 117.562ZM134.406 124.613L140.07 102.562H143.039L142.707 108.246L136.652 131H133.566L134.406 124.613ZM130.168 102.562L134.758 124.438L135.168 131H131.887L125.305 102.562H130.168ZM149.465 124.379L153.996 102.562H158.879L152.297 131H149.016L149.465 124.379ZM144.191 102.562L149.797 124.672L150.617 131H147.531L141.574 108.246L141.262 102.562H144.191ZM181.625 127.113V131H166.527V127.113H181.625ZM167.914 102.562V131H163.012V102.562H167.914ZM179.652 114.438V118.266H166.527V114.438H179.652ZM181.527 102.562V106.469H166.527V102.562H181.527ZM186.129 102.562H196.188C198.349 102.562 200.191 102.888 201.715 103.539C203.238 104.19 204.404 105.154 205.211 106.43C206.031 107.693 206.441 109.255 206.441 111.117C206.441 112.536 206.181 113.786 205.66 114.867C205.139 115.948 204.404 116.859 203.453 117.602C202.503 118.331 201.37 118.897 200.055 119.301L198.57 120.023H189.527L189.488 116.137H196.266C197.438 116.137 198.414 115.928 199.195 115.512C199.977 115.095 200.562 114.529 200.953 113.812C201.357 113.083 201.559 112.263 201.559 111.352C201.559 110.362 201.363 109.503 200.973 108.773C200.595 108.031 200.009 107.465 199.215 107.074C198.421 106.671 197.411 106.469 196.188 106.469H191.031V131H186.129V102.562ZM202.359 131L195.68 118.227L200.816 118.207L207.594 130.746V131H202.359ZM216.727 102.562V131H211.824V102.562H216.727ZM228.328 115.004V118.891H215.477V115.004H228.328ZM229.949 102.562V106.469H215.477V102.562H229.949ZM250.312 102.562H255.195V121.566C255.195 123.728 254.727 125.538 253.789 126.996C252.852 128.454 251.576 129.555 249.961 130.297C248.359 131.026 246.569 131.391 244.59 131.391C242.546 131.391 240.723 131.026 239.121 130.297C237.52 129.555 236.257 128.454 235.332 126.996C234.421 125.538 233.965 123.728 233.965 121.566V102.562H238.848V121.566C238.848 122.934 239.082 124.06 239.551 124.945C240.02 125.818 240.684 126.462 241.543 126.879C242.402 127.296 243.418 127.504 244.59 127.504C245.762 127.504 246.771 127.296 247.617 126.879C248.477 126.462 249.141 125.818 249.609 124.945C250.078 124.06 250.312 122.934 250.312 121.566V102.562ZM278.84 127.113V131H264.562V127.113H278.84ZM265.93 102.562V131H261.027V102.562H265.93Z" fill="black"/>
<path d="M76.5508 120.395H75.5508V121.395H76.5508V120.395ZM76.5508 116.508V115.508H75.5508V116.508H76.5508ZM88.8164 114.164L87.9251 113.711L87.922 113.717L88.8164 114.164ZM88.8164 109.105L87.9076 109.523L87.9117 109.532L87.9161 109.541L88.8164 109.105ZM78.0547 106.469V105.469H77.0547V106.469H78.0547ZM78.0547 131V132H79.0547V131H78.0547ZM73.1523 131H72.1523V132H73.1523V131ZM73.1523 102.562V101.562H72.1523V102.562H73.1523ZM89.5586 103.734L89.1053 104.626L89.1144 104.63L89.5586 103.734ZM93.0938 106.938L92.2327 107.446L92.2348 107.45L93.0938 106.938ZM89.5586 119.34L89.1454 118.429L89.1425 118.431L89.5586 119.34ZM83.9531 119.395H76.5508V121.395H83.9531V119.395ZM77.5508 120.395V116.508H75.5508V120.395H77.5508ZM76.5508 117.508H83.9531V115.508H76.5508V117.508ZM83.9531 117.508C85.338 117.508 86.5562 117.286 87.5427 116.768L86.6136 114.997C86.0115 115.313 85.1464 115.508 83.9531 115.508V117.508ZM87.5427 116.768C88.5031 116.265 89.2431 115.547 89.7108 114.611L87.922 113.717C87.6606 114.24 87.2417 114.668 86.6136 114.997L87.5427 116.768ZM89.7077 114.618C90.1663 113.716 90.3828 112.711 90.3828 111.625H88.3828C88.3828 112.44 88.2217 113.128 87.9251 113.711L89.7077 114.618ZM90.3828 111.625C90.3828 110.581 90.1623 109.592 89.7168 108.67L87.9161 109.541C88.2257 110.181 88.3828 110.872 88.3828 111.625H90.3828ZM89.7252 108.688C89.2719 107.701 88.5506 106.915 87.5967 106.336L86.5595 108.046C87.1942 108.431 87.6317 108.922 87.9076 109.523L89.7252 108.688ZM87.5967 106.336C86.5968 105.73 85.3572 105.469 83.9531 105.469V107.469C85.1272 107.469 85.9709 107.689 86.5595 108.046L87.5967 106.336ZM83.9531 105.469H78.0547V107.469H83.9531V105.469ZM77.0547 106.469V131H79.0547V106.469H77.0547ZM78.0547 130H73.1523V132H78.0547V130ZM74.1523 131V102.562H72.1523V131H74.1523ZM73.1523 103.562H83.9531V101.562H73.1523V103.562ZM83.9531 103.562C86.0385 103.562 87.7427 103.933 89.1053 104.626L90.0118 102.843C88.3016 101.973 86.2688 101.562 83.9531 101.562V103.562ZM89.1144 104.63C90.5065 105.32 91.5326 106.26 92.2327 107.446L93.9548 106.429C93.0403 104.88 91.7097 103.685 90.0028 102.838L89.1144 104.63ZM92.2348 107.45C92.9401 108.633 93.3047 110.002 93.3047 111.586H95.3047C95.3047 109.681 94.8619 107.951 93.9527 106.425L92.2348 107.45ZM93.3047 111.586C93.3047 113.273 92.9352 114.659 92.2415 115.789L93.946 116.836C94.8669 115.336 95.3047 113.571 95.3047 111.586H93.3047ZM92.2415 115.789C91.5493 116.917 90.5326 117.8 89.1454 118.429L89.9718 120.25C91.6836 119.474 93.0237 118.338 93.946 116.836L92.2415 115.789ZM89.1425 118.431C87.7698 119.059 86.0516 119.395 83.9531 119.395V121.395C86.2557 121.395 88.2745 121.027 89.9747 120.249L89.1425 118.431ZM118.633 127.699L117.878 127.043L117.874 127.048L118.633 127.699ZM114.922 130.453L115.319 131.371L115.326 131.368L114.922 130.453ZM105.332 130.453L104.925 131.367L104.935 131.371L105.332 130.453ZM101.602 127.699L100.851 128.36L101.602 127.699ZM99.1406 123.344L98.1926 123.662L98.1949 123.669L99.1406 123.344ZM99.1406 110.238L100.088 110.559L100.089 110.557L99.1406 110.238ZM101.562 105.883L100.808 105.226L100.808 105.227L101.562 105.883ZM105.293 103.129L105.693 104.045L105.697 104.044L105.293 103.129ZM114.883 103.129L114.479 104.044L114.486 104.047L114.883 103.129ZM118.613 105.883L117.855 106.535L117.859 106.539L118.613 105.883ZM121.016 110.238L120.065 110.55L120.068 110.559L121.016 110.238ZM116.504 111.762L115.532 111.999L115.536 112.012L116.504 111.762ZM115.156 108.695L114.338 109.27L114.343 109.278L114.349 109.285L115.156 108.695ZM112.988 106.82L112.541 107.715L112.552 107.72L112.988 106.82ZM107.188 106.82L107.629 107.718L107.64 107.712L107.188 106.82ZM105.02 108.695L104.208 108.112L104.206 108.114L105.02 108.695ZM103.672 111.762L104.64 112.012L104.641 112.009L103.672 111.762ZM105.039 124.887L104.223 125.464L104.228 125.472L104.233 125.479L105.039 124.887ZM107.227 126.781L106.774 127.673L106.785 127.678L107.227 126.781ZM113.027 126.781L113.469 127.678L113.48 127.673L113.027 126.781ZM115.176 124.887L115.994 125.462L115.998 125.456L115.176 124.887ZM116.504 121.781L115.535 121.534L115.533 121.544L116.504 121.781ZM120.875 116V117.562H122.875V116H120.875ZM120.875 117.562C120.875 119.625 120.606 121.444 120.085 123.032L121.985 123.656C122.584 121.832 122.875 119.797 122.875 117.562H120.875ZM120.085 123.032C119.561 124.627 118.822 125.958 117.878 127.043L119.387 128.355C120.527 127.045 121.389 125.471 121.985 123.656L120.085 123.032ZM117.874 127.048C116.943 128.132 115.827 128.96 114.518 129.538L115.326 131.368C116.907 130.67 118.266 129.662 119.391 128.351L117.874 127.048ZM114.525 129.535C113.219 130.1 111.754 130.391 110.117 130.391V132.391C111.996 132.391 113.734 132.056 115.319 131.371L114.525 129.535ZM110.117 130.391C108.494 130.391 107.036 130.1 105.729 129.535L104.935 131.371C106.519 132.056 108.251 132.391 110.117 132.391V130.391ZM105.739 129.54C104.44 128.961 103.314 128.13 102.352 127.038L100.851 128.36C101.999 129.664 103.359 130.669 104.925 131.367L105.739 129.54ZM102.352 127.038C101.394 125.951 100.635 124.617 100.086 123.019L98.1949 123.669C98.8178 125.482 99.6994 127.052 100.851 128.36L102.352 127.038ZM100.089 123.025C99.5561 121.44 99.2812 119.623 99.2812 117.562H97.2812C97.2812 119.799 97.5793 121.836 98.1927 123.662L100.089 123.025ZM99.2812 117.562V116H97.2812V117.562H99.2812ZM99.2812 116C99.2812 113.939 99.5561 112.13 100.088 110.559L98.1934 109.918C97.5793 111.732 97.2812 113.764 97.2812 116H99.2812ZM100.089 110.557C100.625 108.959 101.372 107.626 102.317 106.539L100.808 105.227C99.6696 106.536 98.8018 108.106 98.1927 109.92L100.089 110.557ZM102.317 106.54C103.277 105.437 104.4 104.61 105.693 104.045L104.893 102.212C103.321 102.898 101.958 103.907 100.808 105.226L102.317 106.54ZM105.697 104.044C107.002 103.467 108.458 103.172 110.078 103.172V101.172C108.209 101.172 106.474 101.514 104.889 102.214L105.697 104.044ZM110.078 103.172C111.713 103.172 113.175 103.468 114.479 104.044L115.287 102.214C113.7 101.514 111.959 101.172 110.078 101.172V103.172ZM114.486 104.047C115.79 104.611 116.911 105.437 117.855 106.535L119.371 105.231C118.232 103.907 116.866 102.897 115.28 102.211L114.486 104.047ZM117.859 106.539C118.802 107.624 119.542 108.955 120.066 110.55L121.966 109.926C121.37 108.111 120.508 106.537 119.368 105.227L117.859 106.539ZM120.068 110.559C120.6 112.13 120.875 113.939 120.875 116H122.875C122.875 113.764 122.577 111.732 121.963 109.918L120.068 110.559ZM117.973 117.562V115.961H115.973V117.562H117.973ZM117.973 115.961C117.973 114.31 117.811 112.823 117.472 111.512L115.536 112.012C115.822 113.122 115.973 114.435 115.973 115.961H117.973ZM117.475 111.524C117.152 110.203 116.656 109.054 115.964 108.106L114.349 109.285C114.854 109.978 115.257 110.873 115.533 111.999L117.475 111.524ZM115.974 108.12C115.297 107.157 114.447 106.416 113.425 105.921L112.552 107.72C113.248 108.058 113.843 108.566 114.338 109.27L115.974 108.12ZM113.435 105.926C112.421 105.419 111.295 105.176 110.078 105.176V107.176C111.023 107.176 111.837 107.363 112.541 107.715L113.435 105.926ZM110.078 105.176C108.862 105.176 107.74 105.418 106.735 105.929L107.64 107.712C108.328 107.363 109.133 107.176 110.078 107.176V105.176ZM106.746 105.923C105.739 106.419 104.894 107.157 104.208 108.112L105.832 109.279C106.343 108.567 106.943 108.055 107.629 107.717L106.746 105.923ZM104.206 108.114C103.532 109.057 103.039 110.2 102.703 111.514L104.641 112.009C104.93 110.876 105.335 109.974 105.833 109.277L104.206 108.114ZM102.704 111.512C102.365 112.823 102.203 114.31 102.203 115.961H104.203C104.203 114.435 104.353 113.122 104.64 112.012L102.704 111.512ZM102.203 115.961V117.562H104.203V115.961H102.203ZM102.203 117.562C102.203 119.214 102.365 120.706 102.703 122.029L104.641 121.534C104.353 120.408 104.203 119.088 104.203 117.562H102.203ZM102.703 122.029C103.039 123.346 103.54 124.499 104.223 125.464L105.855 124.309C105.341 123.582 104.929 122.664 104.641 121.534L102.703 122.029ZM104.233 125.479C104.929 126.427 105.776 127.166 106.774 127.673L107.679 125.89C106.985 125.537 106.373 125.013 105.845 124.295L104.233 125.479ZM106.785 127.678C107.787 128.172 108.906 128.406 110.117 128.406V126.406C109.167 126.406 108.358 126.224 107.668 125.884L106.785 127.678ZM110.117 128.406C111.34 128.406 112.465 128.173 113.469 127.678L112.586 125.884C111.897 126.223 111.082 126.406 110.117 126.406V128.406ZM113.48 127.673C114.483 127.164 115.321 126.419 115.994 125.462L114.358 124.312C113.859 125.021 113.265 125.539 112.575 125.89L113.48 127.673ZM115.998 125.456C116.667 124.489 117.153 123.336 117.475 122.019L115.533 121.544C115.256 122.675 114.856 123.591 114.354 124.318L115.998 125.456ZM117.473 122.029C117.81 120.706 117.973 119.214 117.973 117.562H115.973C115.973 119.088 115.822 120.408 115.535 121.534L117.473 122.029ZM134.406 124.613L133.438 124.364L133.423 124.423L133.415 124.483L134.406 124.613ZM140.07 102.562V101.562H139.295L139.102 102.314L140.07 102.562ZM143.039 102.562L144.037 102.621L144.099 101.562H143.039V102.562ZM142.707 108.246L143.673 108.503L143.699 108.405L143.705 108.304L142.707 108.246ZM136.652 131V132H137.421L137.619 131.257L136.652 131ZM133.566 131L132.575 130.87L132.426 132H133.566V131ZM130.168 102.562L131.147 102.357L130.98 101.562H130.168V102.562ZM134.758 124.438L135.756 124.375L135.751 124.303L135.737 124.232L134.758 124.438ZM135.168 131V132H136.232L136.166 130.938L135.168 131ZM131.887 131L130.912 131.225L131.092 132H131.887V131ZM125.305 102.562V101.562H124.047L124.33 102.788L125.305 102.562ZM149.465 124.379L148.486 124.176L148.472 124.243L148.467 124.311L149.465 124.379ZM153.996 102.562V101.562H153.182L153.017 102.359L153.996 102.562ZM158.879 102.562L159.853 102.788L160.137 101.562H158.879V102.562ZM152.297 131V132H153.092L153.271 131.225L152.297 131ZM149.016 131L148.018 130.932L147.945 132H149.016V131ZM144.191 102.562L145.161 102.317L144.97 101.562H144.191V102.562ZM149.797 124.672L150.789 124.543L150.781 124.484L150.766 124.426L149.797 124.672ZM150.617 131V132H151.755L151.609 130.871L150.617 131ZM147.531 131L146.564 131.253L146.759 132H147.531V131ZM141.574 108.246L140.576 108.301L140.581 108.402L140.607 108.499L141.574 108.246ZM141.262 102.562V101.562H140.205L140.263 102.617L141.262 102.562ZM135.375 124.862L141.039 102.811L139.102 102.314L133.438 124.364L135.375 124.862ZM140.07 103.562H143.039V101.562H140.07V103.562ZM142.041 102.504L141.709 108.188L143.705 108.304L144.037 102.621L142.041 102.504ZM141.741 107.989L135.686 130.743L137.619 131.257L143.673 108.503L141.741 107.989ZM136.652 130H133.566V132H136.652V130ZM134.558 131.13L135.398 124.744L133.415 124.483L132.575 130.87L134.558 131.13ZM129.189 102.768L133.779 124.643L135.737 124.232L131.147 102.357L129.189 102.768ZM133.76 124.5L134.17 131.062L136.166 130.938L135.756 124.375L133.76 124.5ZM135.168 130H131.887V132H135.168V130ZM132.861 130.775L126.279 102.337L124.33 102.788L130.912 131.225L132.861 130.775ZM125.305 103.562H130.168V101.562H125.305V103.562ZM150.444 124.582L154.975 102.766L153.017 102.359L148.486 124.176L150.444 124.582ZM153.996 103.562H158.879V101.562H153.996V103.562ZM157.905 102.337L151.323 130.775L153.271 131.225L159.853 102.788L157.905 102.337ZM152.297 130H149.016V132H152.297V130ZM150.013 131.068L150.463 124.447L148.467 124.311L148.018 130.932L150.013 131.068ZM143.222 102.808L148.828 124.918L150.766 124.426L145.161 102.317L143.222 102.808ZM148.805 124.8L149.625 131.129L151.609 130.871L150.789 124.543L148.805 124.8ZM150.617 130H147.531V132H150.617V130ZM148.499 130.747L142.542 107.993L140.607 108.499L146.564 131.253L148.499 130.747ZM142.573 108.191L142.26 102.508L140.263 102.617L140.576 108.301L142.573 108.191ZM141.262 103.562H144.191V101.562H141.262V103.562ZM181.625 127.113H182.625V126.113H181.625V127.113ZM181.625 131V132H182.625V131H181.625ZM166.527 131H165.527V132H166.527V131ZM166.527 127.113V126.113H165.527V127.113H166.527ZM167.914 102.562H168.914V101.562H167.914V102.562ZM167.914 131V132H168.914V131H167.914ZM163.012 131H162.012V132H163.012V131ZM163.012 102.562V101.562H162.012V102.562H163.012ZM179.652 114.438H180.652V113.438H179.652V114.438ZM179.652 118.266V119.266H180.652V118.266H179.652ZM166.527 118.266H165.527V119.266H166.527V118.266ZM166.527 114.438V113.438H165.527V114.438H166.527ZM181.527 102.562H182.527V101.562H181.527V102.562ZM181.527 106.469V107.469H182.527V106.469H181.527ZM166.527 106.469H165.527V107.469H166.527V106.469ZM166.527 102.562V101.562H165.527V102.562H166.527ZM180.625 127.113V131H182.625V127.113H180.625ZM181.625 130H166.527V132H181.625V130ZM167.527 131V127.113H165.527V131H167.527ZM166.527 128.113H181.625V126.113H166.527V128.113ZM166.914 102.562V131H168.914V102.562H166.914ZM167.914 130H163.012V132H167.914V130ZM164.012 131V102.562H162.012V131H164.012ZM163.012 103.562H167.914V101.562H163.012V103.562ZM178.652 114.438V118.266H180.652V114.438H178.652ZM179.652 117.266H166.527V119.266H179.652V117.266ZM167.527 118.266V114.438H165.527V118.266H167.527ZM166.527 115.438H179.652V113.438H166.527V115.438ZM180.527 102.562V106.469H182.527V102.562H180.527ZM181.527 105.469H166.527V107.469H181.527V105.469ZM167.527 106.469V102.562H165.527V106.469H167.527ZM166.527 103.562H181.527V101.562H166.527V103.562ZM186.129 102.562V101.562H185.129V102.562H186.129ZM205.211 106.43L204.366 106.964L204.372 106.974L205.211 106.43ZM203.453 117.602L204.062 118.395L204.069 118.39L203.453 117.602ZM200.055 119.301L199.761 118.345L199.687 118.368L199.617 118.402L200.055 119.301ZM198.57 120.023V121.023H198.801L199.008 120.923L198.57 120.023ZM189.527 120.023L188.527 120.033L188.537 121.023H189.527V120.023ZM189.488 116.137V115.137H188.478L188.488 116.147L189.488 116.137ZM200.953 113.812L200.078 113.328L200.075 113.334L200.953 113.812ZM200.973 108.773L200.081 109.227L200.086 109.236L200.091 109.246L200.973 108.773ZM199.215 107.074L198.762 107.966L198.774 107.972L199.215 107.074ZM191.031 106.469V105.469H190.031V106.469H191.031ZM191.031 131V132H192.031V131H191.031ZM186.129 131H185.129V132H186.129V131ZM202.359 131L201.473 131.463L201.754 132H202.359V131ZM195.68 118.227L195.676 117.227L194.032 117.233L194.794 118.69L195.68 118.227ZM200.816 118.207L201.696 117.732L201.411 117.205L200.813 117.207L200.816 118.207ZM207.594 130.746H208.594V130.493L208.473 130.271L207.594 130.746ZM207.594 131V132H208.594V131H207.594ZM186.129 103.562H196.188V101.562H186.129V103.562ZM196.188 103.562C198.253 103.562 199.954 103.874 201.322 104.459L202.108 102.62C200.429 101.902 198.445 101.562 196.188 101.562V103.562ZM201.322 104.459C202.678 105.038 203.677 105.876 204.366 106.964L206.056 105.895C205.13 104.431 203.799 103.342 202.108 102.62L201.322 104.459ZM204.372 106.974C205.065 108.041 205.441 109.403 205.441 111.117H207.441C207.441 109.108 206.998 107.345 206.05 105.885L204.372 106.974ZM205.441 111.117C205.441 112.413 205.204 113.51 204.759 114.433L206.561 115.301C207.158 114.063 207.441 112.66 207.441 111.117H205.441ZM204.759 114.433C204.306 115.375 203.668 116.165 202.838 116.813L204.069 118.39C205.139 117.554 205.973 116.521 206.561 115.301L204.759 114.433ZM202.844 116.808C202.001 117.455 200.979 117.971 199.761 118.345L200.348 120.257C201.76 119.823 203.004 119.207 204.062 118.395L202.844 116.808ZM199.617 118.402L198.133 119.124L199.008 120.923L200.492 120.2L199.617 118.402ZM198.57 119.023H189.527V121.023H198.57V119.023ZM190.527 120.013L190.488 116.127L188.488 116.147L188.527 120.033L190.527 120.013ZM189.488 117.137H196.266V115.137H189.488V117.137ZM196.266 117.137C197.55 117.137 198.701 116.909 199.666 116.394L198.725 114.629C198.128 114.948 197.325 115.137 196.266 115.137V117.137ZM199.666 116.394C200.604 115.894 201.339 115.194 201.831 114.291L200.075 113.334C199.786 113.864 199.349 114.296 198.725 114.629L199.666 116.394ZM201.828 114.297C202.321 113.406 202.559 112.416 202.559 111.352H200.559C200.559 112.11 200.392 112.761 200.078 113.328L201.828 114.297ZM202.559 111.352C202.559 110.229 202.336 109.202 201.854 108.301L200.091 109.246C200.39 109.804 200.559 110.495 200.559 111.352H202.559ZM201.864 108.32C201.382 107.373 200.631 106.657 199.656 106.177L198.774 107.972C199.387 108.273 199.808 108.69 200.081 109.227L201.864 108.32ZM199.668 106.183C198.691 105.686 197.513 105.469 196.188 105.469V107.469C197.31 107.469 198.15 107.655 198.762 107.966L199.668 106.183ZM196.188 105.469H191.031V107.469H196.188V105.469ZM190.031 106.469V131H192.031V106.469H190.031ZM191.031 130H186.129V132H191.031V130ZM187.129 131V102.562H185.129V131H187.129ZM203.246 130.537L196.566 117.763L194.794 118.69L201.473 131.463L203.246 130.537ZM195.683 119.227L200.82 119.207L200.813 117.207L195.676 117.227L195.683 119.227ZM199.937 118.683L206.714 131.222L208.473 130.271L201.696 117.732L199.937 118.683ZM206.594 130.746V131H208.594V130.746H206.594ZM207.594 130H202.359V132H207.594V130ZM216.727 102.562H217.727V101.562H216.727V102.562ZM216.727 131V132H217.727V131H216.727ZM211.824 131H210.824V132H211.824V131ZM211.824 102.562V101.562H210.824V102.562H211.824ZM228.328 115.004H229.328V114.004H228.328V115.004ZM228.328 118.891V119.891H229.328V118.891H228.328ZM215.477 118.891H214.477V119.891H215.477V118.891ZM215.477 115.004V114.004H214.477V115.004H215.477ZM229.949 102.562H230.949V101.562H229.949V102.562ZM229.949 106.469V107.469H230.949V106.469H229.949ZM215.477 106.469H214.477V107.469H215.477V106.469ZM215.477 102.562V101.562H214.477V102.562H215.477ZM215.727 102.562V131H217.727V102.562H215.727ZM216.727 130H211.824V132H216.727V130ZM212.824 131V102.562H210.824V131H212.824ZM211.824 103.562H216.727V101.562H211.824V103.562ZM227.328 115.004V118.891H229.328V115.004H227.328ZM228.328 117.891H215.477V119.891H228.328V117.891ZM216.477 118.891V115.004H214.477V118.891H216.477ZM215.477 116.004H228.328V114.004H215.477V116.004ZM228.949 102.562V106.469H230.949V102.562H228.949ZM229.949 105.469H215.477V107.469H229.949V105.469ZM216.477 106.469V102.562H214.477V106.469H216.477ZM215.477 103.562H229.949V101.562H215.477V103.562ZM250.312 102.562V101.562H249.312V102.562H250.312ZM255.195 102.562H256.195V101.562H255.195V102.562ZM249.961 130.297L250.375 131.207L250.379 131.205L249.961 130.297ZM239.121 130.297L238.701 131.204L238.707 131.207L239.121 130.297ZM235.332 126.996L234.484 127.526L234.487 127.532L235.332 126.996ZM233.965 102.562V101.562H232.965V102.562H233.965ZM238.848 102.562H239.848V101.562H238.848V102.562ZM239.551 124.945L238.667 125.413L238.67 125.419L239.551 124.945ZM247.617 126.879L247.181 125.979L247.176 125.982L247.617 126.879ZM249.609 124.945L250.49 125.419L250.493 125.413L249.609 124.945ZM250.312 103.562H255.195V101.562H250.312V103.562ZM254.195 102.562V121.566H256.195V102.562H254.195ZM254.195 121.566C254.195 123.583 253.759 125.194 252.948 126.455L254.63 127.537C255.694 125.882 256.195 123.872 256.195 121.566H254.195ZM252.948 126.455C252.116 127.749 250.989 128.724 249.543 129.388L250.379 131.205C252.162 130.386 253.587 129.16 254.63 127.537L252.948 126.455ZM249.547 129.387C248.09 130.05 246.444 130.391 244.59 130.391V132.391C246.694 132.391 248.628 132.002 250.375 131.207L249.547 129.387ZM244.59 130.391C242.666 130.391 240.988 130.048 239.535 129.387L238.707 131.207C240.458 132.004 242.426 132.391 244.59 132.391V130.391ZM239.542 129.39C238.11 128.726 236.996 127.753 236.177 126.461L234.487 127.532C235.517 129.156 236.929 130.383 238.701 131.204L239.542 129.39ZM236.18 126.466C235.391 125.203 234.965 123.588 234.965 121.566H232.965C232.965 123.867 233.451 125.873 234.484 127.526L236.18 126.466ZM234.965 121.566V102.562H232.965V121.566H234.965ZM233.965 103.562H238.848V101.562H233.965V103.562ZM237.848 102.562V121.566H239.848V102.562H237.848ZM237.848 121.566C237.848 123.04 238.099 124.341 238.667 125.413L240.435 124.477C240.065 123.779 239.848 122.827 239.848 121.566H237.848ZM238.67 125.419C239.234 126.469 240.051 127.267 241.107 127.779L241.979 125.979C241.317 125.658 240.805 125.166 240.432 124.472L238.67 125.419ZM241.107 127.779C242.129 128.275 243.3 128.504 244.59 128.504V126.504C243.535 126.504 242.675 126.317 241.979 125.979L241.107 127.779ZM244.59 128.504C245.879 128.504 247.046 128.275 248.059 127.776L247.176 125.982C246.496 126.316 245.645 126.504 244.59 126.504V128.504ZM248.053 127.779C249.11 127.267 249.926 126.469 250.49 125.419L248.728 124.472C248.355 125.166 247.844 125.658 247.181 125.979L248.053 127.779ZM250.493 125.413C251.061 124.341 251.312 123.04 251.312 121.566H249.312C249.312 122.827 249.095 123.779 248.726 124.477L250.493 125.413ZM251.312 121.566V102.562H249.312V121.566H251.312ZM278.84 127.113H279.84V126.113H278.84V127.113ZM278.84 131V132H279.84V131H278.84ZM264.562 131H263.562V132H264.562V131ZM264.562 127.113V126.113H263.562V127.113H264.562ZM265.93 102.562H266.93V101.562H265.93V102.562ZM265.93 131V132H266.93V131H265.93ZM261.027 131H260.027V132H261.027V131ZM261.027 102.562V101.562H260.027V102.562H261.027ZM277.84 127.113V131H279.84V127.113H277.84ZM278.84 130H264.562V132H278.84V130ZM265.562 131V127.113H263.562V131H265.562ZM264.562 128.113H278.84V126.113H264.562V128.113ZM264.93 102.562V131H266.93V102.562H264.93ZM265.93 130H261.027V132H265.93V130ZM262.027 131V102.562H260.027V131H262.027ZM261.027 103.562H265.93V101.562H261.027V103.562Z" fill="black"/>
</g>
<g filter="url(#filter1_d_9_1227)">
<path d="M145.125 35.5V81H137.344V35.5H145.125ZM159.406 35.5V41.75H123.188V35.5H159.406ZM189.344 69.2812C189.344 68.3438 189.198 67.5104 188.906 66.7812C188.635 66.0521 188.146 65.3854 187.438 64.7812C186.729 64.1771 185.729 63.5938 184.438 63.0312C183.167 62.4479 181.542 61.8542 179.562 61.25C177.396 60.5833 175.396 59.8438 173.562 59.0312C171.75 58.1979 170.167 57.2396 168.812 56.1562C167.458 55.0521 166.406 53.7917 165.656 52.375C164.906 50.9375 164.531 49.2812 164.531 47.4062C164.531 45.5521 164.917 43.8646 165.688 42.3438C166.479 40.8229 167.594 39.5104 169.031 38.4062C170.49 37.2812 172.208 36.4167 174.188 35.8125C176.167 35.1875 178.354 34.875 180.75 34.875C184.125 34.875 187.031 35.5 189.469 36.75C191.927 38 193.812 39.6771 195.125 41.7812C196.458 43.8854 197.125 46.2083 197.125 48.75H189.344C189.344 47.25 189.021 45.9271 188.375 44.7812C187.75 43.6146 186.792 42.6979 185.5 42.0312C184.229 41.3646 182.615 41.0312 180.656 41.0312C178.802 41.0312 177.26 41.3125 176.031 41.875C174.802 42.4375 173.885 43.1979 173.281 44.1562C172.677 45.1146 172.375 46.1979 172.375 47.4062C172.375 48.2604 172.573 49.0417 172.969 49.75C173.365 50.4375 173.969 51.0833 174.781 51.6875C175.594 52.2708 176.615 52.8229 177.844 53.3438C179.073 53.8646 180.521 54.3646 182.188 54.8438C184.708 55.5938 186.906 56.4271 188.781 57.3438C190.656 58.2396 192.219 59.2604 193.469 60.4062C194.719 61.5521 195.656 62.8542 196.281 64.3125C196.906 65.75 197.219 67.3854 197.219 69.2188C197.219 71.1354 196.833 72.8646 196.062 74.4062C195.292 75.9271 194.188 77.2292 192.75 78.3125C191.333 79.375 189.625 80.1979 187.625 80.7812C185.646 81.3438 183.438 81.625 181 81.625C178.812 81.625 176.656 81.3333 174.531 80.75C172.427 80.1667 170.51 79.2812 168.781 78.0938C167.052 76.8854 165.677 75.3854 164.656 73.5938C163.635 71.7812 163.125 69.6667 163.125 67.25H170.969C170.969 68.7292 171.219 69.9896 171.719 71.0312C172.24 72.0729 172.958 72.9271 173.875 73.5938C174.792 74.2396 175.854 74.7188 177.062 75.0312C178.292 75.3438 179.604 75.5 181 75.5C182.833 75.5 184.365 75.2396 185.594 74.7188C186.844 74.1979 187.781 73.4688 188.406 72.5312C189.031 71.5938 189.344 70.5104 189.344 69.2812ZM228.594 81V86.875H200.094V81H228.594Z" fill="black"/>
<path d="M145.125 35.5V81H137.344V35.5H145.125ZM159.406 35.5V41.75H123.188V35.5H159.406ZM189.344 69.2812C189.344 68.3438 189.198 67.5104 188.906 66.7812C188.635 66.0521 188.146 65.3854 187.438 64.7812C186.729 64.1771 185.729 63.5938 184.438 63.0312C183.167 62.4479 181.542 61.8542 179.562 61.25C177.396 60.5833 175.396 59.8438 173.562 59.0312C171.75 58.1979 170.167 57.2396 168.812 56.1562C167.458 55.0521 166.406 53.7917 165.656 52.375C164.906 50.9375 164.531 49.2812 164.531 47.4062C164.531 45.5521 164.917 43.8646 165.688 42.3438C166.479 40.8229 167.594 39.5104 169.031 38.4062C170.49 37.2812 172.208 36.4167 174.188 35.8125C176.167 35.1875 178.354 34.875 180.75 34.875C184.125 34.875 187.031 35.5 189.469 36.75C191.927 38 193.812 39.6771 195.125 41.7812C196.458 43.8854 197.125 46.2083 197.125 48.75H189.344C189.344 47.25 189.021 45.9271 188.375 44.7812C187.75 43.6146 186.792 42.6979 185.5 42.0312C184.229 41.3646 182.615 41.0312 180.656 41.0312C178.802 41.0312 177.26 41.3125 176.031 41.875C174.802 42.4375 173.885 43.1979 173.281 44.1562C172.677 45.1146 172.375 46.1979 172.375 47.4062C172.375 48.2604 172.573 49.0417 172.969 49.75C173.365 50.4375 173.969 51.0833 174.781 51.6875C175.594 52.2708 176.615 52.8229 177.844 53.3438C179.073 53.8646 180.521 54.3646 182.188 54.8438C184.708 55.5938 186.906 56.4271 188.781 57.3438C190.656 58.2396 192.219 59.2604 193.469 60.4062C194.719 61.5521 195.656 62.8542 196.281 64.3125C196.906 65.75 197.219 67.3854 197.219 69.2188C197.219 71.1354 196.833 72.8646 196.062 74.4062C195.292 75.9271 194.188 77.2292 192.75 78.3125C191.333 79.375 189.625 80.1979 187.625 80.7812C185.646 81.3438 183.438 81.625 181 81.625C178.812 81.625 176.656 81.3333 174.531 80.75C172.427 80.1667 170.51 79.2812 168.781 78.0938C167.052 76.8854 165.677 75.3854 164.656 73.5938C163.635 71.7812 163.125 69.6667 163.125 67.25H170.969C170.969 68.7292 171.219 69.9896 171.719 71.0312C172.24 72.0729 172.958 72.9271 173.875 73.5938C174.792 74.2396 175.854 74.7188 177.062 75.0312C178.292 75.3438 179.604 75.5 181 75.5C182.833 75.5 184.365 75.2396 185.594 74.7188C186.844 74.1979 187.781 73.4688 188.406 72.5312C189.031 71.5938 189.344 70.5104 189.344 69.2812ZM228.594 81V86.875H200.094V81H228.594Z" fill="black" fill-opacity="0.2"/>
<path d="M145.125 35.5H146.625V34H145.125V35.5ZM145.125 81V82.5H146.625V81H145.125ZM137.344 81H135.844V82.5H137.344V81ZM137.344 35.5V34H135.844V35.5H137.344ZM159.406 35.5H160.906V34H159.406V35.5ZM159.406 41.75V43.25H160.906V41.75H159.406ZM123.188 41.75H121.688V43.25H123.188V41.75ZM123.188 35.5V34H121.688V35.5H123.188ZM143.625 35.5V81H146.625V35.5H143.625ZM145.125 79.5H137.344V82.5H145.125V79.5ZM138.844 81V35.5H135.844V81H138.844ZM137.344 37H145.125V34H137.344V37ZM157.906 35.5V41.75H160.906V35.5H157.906ZM159.406 40.25H123.188V43.25H159.406V40.25ZM124.688 41.75V35.5H121.688V41.75H124.688ZM123.188 37H159.406V34H123.188V37ZM188.906 66.7812L187.5 67.3035L187.507 67.321L187.514 67.3383L188.906 66.7812ZM187.438 64.7812L186.464 65.9225L187.438 64.7812ZM184.438 63.0312L183.812 64.3945L183.825 64.4006L183.839 64.4065L184.438 63.0312ZM179.562 61.25L179.121 62.6837L179.125 62.6846L179.562 61.25ZM173.562 59.0312L172.936 60.3941L172.945 60.3984L172.955 60.4026L173.562 59.0312ZM168.812 56.1562L167.865 57.3188L167.875 57.3276L168.812 56.1562ZM165.656 52.375L164.326 53.0689L164.331 53.0768L165.656 52.375ZM165.688 42.3438L164.357 41.6511L164.353 41.6584L164.35 41.6656L165.688 42.3438ZM169.031 38.4062L169.945 39.5958L169.947 39.5939L169.031 38.4062ZM174.188 35.8125L174.625 37.2471L174.632 37.245L174.639 37.2429L174.188 35.8125ZM189.469 36.75L188.784 38.0847L188.789 38.0871L189.469 36.75ZM195.125 41.7812L193.852 42.5751L193.858 42.5841L195.125 41.7812ZM197.125 48.75V50.25H198.625V48.75H197.125ZM189.344 48.75H187.844V50.25H189.344V48.75ZM188.375 44.7812L187.053 45.4896L187.06 45.5038L187.068 45.5178L188.375 44.7812ZM185.5 42.0312L184.803 43.3596L184.812 43.3642L185.5 42.0312ZM176.031 41.875L175.407 40.511L176.031 41.875ZM172.969 49.75L171.659 50.4817L171.664 50.4901L171.669 50.4984L172.969 49.75ZM174.781 51.6875L173.886 52.8912L173.896 52.8987L173.906 52.906L174.781 51.6875ZM177.844 53.3438L177.259 54.7249L177.844 53.3438ZM182.188 54.8438L182.615 53.406L182.602 53.4021L182.188 54.8438ZM188.781 57.3438L188.122 58.6914L188.135 58.6972L188.781 57.3438ZM196.281 64.3125L194.903 64.9034L194.906 64.9106L196.281 64.3125ZM196.062 74.4062L197.4 75.0844L197.404 75.0771L196.062 74.4062ZM192.75 78.3125L193.65 79.5125L193.653 79.5104L192.75 78.3125ZM187.625 80.7812L188.035 82.2241L188.045 82.2213L187.625 80.7812ZM174.531 80.75L174.131 82.1955L174.134 82.1965L174.531 80.75ZM168.781 78.0938L167.922 79.3233L167.932 79.3302L168.781 78.0938ZM164.656 73.5938L163.349 74.3299L163.353 74.3363L164.656 73.5938ZM163.125 67.25V65.75H161.625V67.25H163.125ZM170.969 67.25H172.469V65.75H170.969V67.25ZM171.719 71.0312L170.366 71.6803L170.372 71.6913L170.377 71.7021L171.719 71.0312ZM173.875 73.5938L172.993 74.8069L173.002 74.8135L173.011 74.82L173.875 73.5938ZM177.062 75.0312L176.687 76.4835L176.693 76.485L177.062 75.0312ZM185.594 74.7188L185.017 73.3341L185.009 73.3376L185.594 74.7188ZM190.844 69.2812C190.844 68.1891 190.674 67.1613 190.299 66.2242L187.514 67.3383C187.722 67.8596 187.844 68.4984 187.844 69.2812H190.844ZM190.312 66.259C189.936 65.2468 189.276 64.3775 188.411 63.64L186.464 65.9225C187.016 66.3933 187.334 66.8573 187.5 67.3035L190.312 66.259ZM188.411 63.64C187.548 62.904 186.402 62.2506 185.036 61.656L183.839 64.4065C185.057 64.9369 185.91 65.4502 186.464 65.9225L188.411 63.64ZM185.063 61.668C183.71 61.0469 182.016 60.4308 180 59.8154L179.125 62.6846C181.067 63.2776 182.623 63.8489 183.812 64.3945L185.063 61.668ZM180.004 59.8163C177.887 59.1649 175.943 58.4455 174.17 57.6599L172.955 60.4026C174.849 61.242 176.905 62.0018 179.121 62.6837L180.004 59.8163ZM174.189 57.6684C172.471 56.8786 170.995 55.9816 169.75 54.9849L167.875 57.3276C169.338 58.4975 171.029 59.5173 172.936 60.3941L174.189 57.6684ZM169.76 54.9937C168.548 54.0048 167.63 52.8972 166.982 51.6732L164.331 53.0768C165.183 54.6862 166.369 56.0993 167.865 57.3188L169.76 54.9937ZM166.986 51.6812C166.364 50.4891 166.031 49.0776 166.031 47.4062H163.031C163.031 49.4849 163.448 51.3859 164.326 53.0688L166.986 51.6812ZM166.031 47.4062C166.031 45.7667 166.37 44.3146 167.025 43.0219L164.35 41.6656C163.463 43.4146 163.031 45.3375 163.031 47.4062H166.031ZM167.018 43.0364C167.703 41.7206 168.671 40.5745 169.945 39.5958L168.118 37.2167C166.517 38.4463 165.255 39.9252 164.357 41.6511L167.018 43.0364ZM169.947 39.5939C171.246 38.5922 172.798 37.805 174.625 37.2471L173.75 34.3779C171.619 35.0284 169.733 35.9703 168.115 37.2186L169.947 39.5939ZM174.639 37.2429C176.452 36.6705 178.484 36.375 180.75 36.375V33.375C178.224 33.375 175.882 33.7045 173.736 34.3821L174.639 37.2429ZM180.75 36.375C183.941 36.375 186.602 36.9657 188.784 38.0847L190.153 35.4153C187.46 34.0343 184.309 33.375 180.75 33.375V36.375ZM188.789 38.0871C191.032 39.2276 192.7 40.7279 193.852 42.5751L196.398 40.9874C194.925 38.6263 192.822 36.7724 190.149 35.4129L188.789 38.0871ZM193.858 42.5841C195.036 44.443 195.625 46.4865 195.625 48.75H198.625C198.625 45.9301 197.881 43.3278 196.392 40.9784L193.858 42.5841ZM197.125 47.25H189.344V50.25H197.125V47.25ZM190.844 48.75C190.844 47.0287 190.471 45.4453 189.682 44.0447L187.068 45.5178C187.57 46.4088 187.844 47.4713 187.844 48.75H190.844ZM189.697 44.0729C188.915 42.6124 187.722 41.4899 186.188 40.6983L184.812 43.3642C185.862 43.9059 186.585 44.6167 187.053 45.4896L189.697 44.0729ZM186.197 40.7029C184.647 39.89 182.773 39.5312 180.656 39.5312V42.5312C182.456 42.5312 183.811 42.8392 184.803 43.3596L186.197 40.7029ZM180.656 39.5312C178.662 39.5312 176.891 39.8321 175.407 40.511L176.655 43.239C177.63 42.7929 178.942 42.5312 180.656 42.5312V39.5312ZM175.407 40.511C173.965 41.1711 172.8 42.107 172.012 43.3563L174.55 44.9562C174.971 44.2888 175.639 43.7039 176.655 43.239L175.407 40.511ZM172.012 43.3563C171.247 44.5703 170.875 45.9345 170.875 47.4062H173.875C173.875 46.4613 174.107 45.6589 174.55 44.9562L172.012 43.3563ZM170.875 47.4062C170.875 48.5026 171.132 49.5379 171.659 50.4817L174.278 49.0183C174.014 48.5455 173.875 48.0182 173.875 47.4062H170.875ZM171.669 50.4984C172.191 51.4056 172.953 52.1971 173.886 52.8912L175.676 50.4838C174.985 49.9696 174.538 49.4694 174.269 49.0016L171.669 50.4984ZM173.906 52.906C174.833 53.5715 175.959 54.1742 177.259 54.7249L178.429 51.9626C177.27 51.4717 176.354 50.9702 175.656 50.469L173.906 52.906ZM177.259 54.7249C178.557 55.275 180.064 55.7941 181.773 56.2854L182.602 53.4021C180.977 52.935 179.589 52.4541 178.429 51.9626L177.259 54.7249ZM181.76 56.2815C184.221 57.0136 186.338 57.819 188.122 58.6913L189.44 55.9962C187.474 55.0352 185.196 54.1739 182.615 53.406L181.76 56.2815ZM188.135 58.6972C189.905 59.5429 191.336 60.486 192.455 61.512L194.482 59.3005C193.102 58.0348 191.408 56.9363 189.428 55.9903L188.135 58.6972ZM192.455 61.512C193.559 62.5241 194.367 63.6538 194.903 64.9034L197.66 63.7216C196.945 62.0545 195.878 60.5801 194.482 59.3005L192.455 61.512ZM194.906 64.9106C195.436 66.1301 195.719 67.5567 195.719 69.2188H198.719C198.719 67.2141 198.377 65.3699 197.657 63.7144L194.906 64.9106ZM195.719 69.2188C195.719 70.929 195.376 72.4244 194.721 73.7354L197.404 75.0771C198.29 73.3047 198.719 71.3419 198.719 69.2188H195.719ZM194.725 73.7281C194.063 75.0334 193.112 76.1612 191.847 77.1146L193.653 79.5104C195.263 78.2972 196.52 76.8208 197.4 75.0844L194.725 73.7281ZM191.85 77.1125C190.601 78.0495 189.062 78.7997 187.205 79.3412L188.045 82.2213C190.188 81.5962 192.066 80.7005 193.65 79.5125L191.85 77.1125ZM187.215 79.3384C185.391 79.8568 183.324 80.125 181 80.125V83.125C183.551 83.125 185.901 82.8307 188.035 82.2241L187.215 79.3384ZM181 80.125C178.948 80.125 176.925 79.8516 174.928 79.3035L174.134 82.1965C176.388 82.8151 178.677 83.125 181 83.125V80.125ZM174.932 79.3045C172.981 78.7637 171.217 77.9469 169.63 76.8573L167.932 79.3302C169.804 80.6156 171.873 81.5696 174.131 82.1955L174.932 79.3045ZM169.64 76.8642C168.089 75.7802 166.868 74.4451 165.96 72.8512L163.353 74.3363C164.486 76.3258 166.015 77.9906 167.922 79.3233L169.64 76.8642ZM165.963 72.8576C165.088 71.3039 164.625 69.4509 164.625 67.25H161.625C161.625 69.8825 162.183 72.2586 163.349 74.3299L165.963 72.8576ZM163.125 68.75H170.969V65.75H163.125V68.75ZM169.469 67.25C169.469 68.893 169.746 70.3876 170.366 71.6803L173.071 70.3822C172.692 69.5916 172.469 68.5653 172.469 67.25H169.469ZM170.377 71.7021C171.002 72.9526 171.876 73.9949 172.993 74.8069L174.757 72.3806C174.04 71.8593 173.477 71.1933 173.06 70.3604L170.377 71.7021ZM173.011 74.82C174.091 75.5811 175.323 76.1308 176.687 76.4835L177.438 73.579C176.385 73.3067 175.492 72.8981 174.739 72.3675L173.011 74.82ZM176.693 76.485C178.054 76.8311 179.492 77 181 77V74C179.716 74 178.529 73.8564 177.432 73.5775L176.693 76.485ZM181 77C182.964 77 184.709 76.7226 186.179 76.0999L185.009 73.3376C184.02 73.7566 182.703 74 181 74V77ZM186.171 76.1034C187.638 75.492 188.834 74.5932 189.654 73.3633L187.158 71.6992C186.728 72.3443 186.049 72.9039 185.017 73.3341L186.171 76.1034ZM189.654 73.3633C190.459 72.157 190.844 70.7785 190.844 69.2812H187.844C187.844 70.2424 187.604 71.0305 187.158 71.6992L189.654 73.3633ZM228.594 81H230.094V79.5H228.594V81ZM228.594 86.875V88.375H230.094V86.875H228.594ZM200.094 86.875H198.594V88.375H200.094V86.875ZM200.094 81V79.5H198.594V81H200.094ZM227.094 81V86.875H230.094V81H227.094ZM228.594 85.375H200.094V88.375H228.594V85.375ZM201.594 86.875V81H198.594V86.875H201.594ZM200.094 82.5H228.594V79.5H200.094V82.5Z" fill="black"/>
</g>
<defs>
<filter id="filter0_d_9_1227" x="69.1523" y="102.172" width="213.688" height="37.2188" filterUnits="userSpaceOnUse" color-interpolation-filters="sRGB">
<feFlood flood-opacity="0" result="BackgroundImageFix"/>
<feColorMatrix in="SourceAlpha" type="matrix" values="0 0 0 0 0 0 0 0 0 0 0 0 0 0 0 0 0 0 127 0" result="hardAlpha"/>
<feOffset dy="4"/>
<feGaussianBlur stdDeviation="2"/>
<feComposite in2="hardAlpha" operator="out"/>
<feColorMatrix type="matrix" values="0 0 0 0 0 0 0 0 0 0 0 0 0 0 0 0 0 0 0.25 0"/>
<feBlend mode="normal" in2="BackgroundImageFix" result="effect1_dropShadow_9_1227"/>
<feBlend mode="normal" in="SourceGraphic" in2="effect1_dropShadow_9_1227" result="shape"/>
</filter>
<filter id="filter1_d_9_1227" x="119.188" y="34.875" width="113.406" height="60" filterUnits="userSpaceOnUse" color-interpolation-filters="sRGB">
<feFlood flood-opacity="0" result="BackgroundImageFix"/>
<feColorMatrix in="SourceAlpha" type="matrix" values="0 0 0 0 0 0 0 0 0 0 0 0 0 0 0 0 0 0 127 0" result="hardAlpha"/>
<feOffset dy="4"/>
<feGaussianBlur stdDeviation="2"/>
<feComposite in2="hardAlpha" operator="out"/>
<feColorMatrix type="matrix" values="0 0 0 0 0 0 0 0 0 0 0 0 0 0 0 0 0 0 0.25 0"/>
<feBlend mode="normal" in2="BackgroundImageFix" result="effect1_dropShadow_9_1227"/>
<feBlend mode="normal" in="SourceGraphic" in2="effect1_dropShadow_9_1227" result="shape"/>
</filter>
</defs>
</svg>
